<svg xmlns="http://www.w3.org/2000/svg" viewBox="0 0 200 200"><path class="path-shape" d="M0 0v200h200V0H0zm67.5 133.9H56.1v.1H44.2c-.3 0-.7 0-1-.1-.6-.2-.7-.5-.3-1.1 1.7-2.3 3.3-4.6 5-6.8 2.4-3.2 4.8-6.4 7.2-9.5.6-.8 1.1-.8 1.7 0 1.1 1.6 2.2 3.1 3.4 4.7 1.5 2 3 3.9 4.4 5.8 1.3 1.7 2.4 3.5 3.7 5.3 0 0 0 .1.1.1.2.4.5.8.7 1.3-.5 0-1 .2-1.6.2zm24.8-20.7c-.8 2.7-1.9 5.2-2.9 7.9-.7 1.8-1.2 3.7-1.9 5.5-.6 1.8-1.3 3.6-1.9 5.4-.2.4-.5.8-.9 1.3-10.7-22.4-21.3-44.6-32-67 .5-.1.9-.3 1.4-.3 5 0 10.1.1 15.1-.1 2-.1 2.3 1.4 2.9 2.7 2.9 6 5.9 12.1 8.7 18.1 2.8 5.9 5.5 11.7 8.3 17.6.9 2 2 3.9 2.9 5.9.4.9.6 2.1.3 3zm31.1 20.8H111c-.9 0-1.3-.5-1.3-1.4v-20.1c0-9.4 0-18.7.1-28.1V67.5c0-1.2.5-1.5 1.4-1.5h12.7c.8 0 1.1.3 1.1 1.2v65.1c-.2 1.4-.4 1.7-1.6 1.7zm33.9-44.9c-.1 3.9-1.6 7.3-3.7 10.5-2.5 3.8-6.1 5.8-10 7.4-2.5 1-5 1.6-7.6 1.7-.5 0-1.1-.1-1.8-.2 1.1-1.3 2.1-2.2 2.7-3.4 1.2-2 2.3-4 3.1-6.2 1.8-5.2 2.1-10.7 1.5-16.2-.4-4-1.4-7.9-3.5-11.3-1.1-1.7-2.3-3.3-3.5-5.1.2-.1.6-.3 1-.3 3.3.1 6.4.9 9.4 2.3 1.2.6 2.5 1.2 3.6 2 1.5 1.2 2.9 2.5 4.3 3.9 2.2 2.3 3.5 5.1 4.1 8.3.3 2.2.4 4.4.4 6.6z"/></svg>